<?xml version="1.0" encoding="UTF-8" standalone="no"?>
<!DOCTYPE svg PUBLIC "-//W3C//DTD SVG 1.1//EN"
 "http://www.w3.org/Graphics/SVG/1.1/DTD/svg11.dtd">
<!-- Generated by graphviz version 2.38.0 (20140413.2041)
 -->
<!-- Title: s Pages: 1 -->
<svg width="531pt" height="408pt"
 viewBox="0.00 0.00 531.00 408.00" xmlns="http://www.w3.org/2000/svg" xmlns:xlink="http://www.w3.org/1999/xlink">
<g id="graph0" class="graph" transform="scale(1 1) rotate(0) translate(4 404)">
<title>s</title>
<polygon fill="white" stroke="none" points="-4,4 -4,-404 527,-404 527,4 -4,4"/>
<text text-anchor="middle" x="261.5" y="-7.8" font-family="Helvetica,sans-Serif" font-size="14.00">Immediate Family Tree for Aegon Targaryen I</text>
<g id="clust1" class="cluster"><title>cluster_0</title>
<polygon fill="none" stroke="black" points="289,-317 289,-392 515,-392 515,-317 289,-317"/>
<text text-anchor="middle" x="402" y="-376.8" font-family="Helvetica,sans-Serif" font-size="14.00">Legend</text>
</g>
<!-- Rhaenys Targaryen -->
<g id="node1" class="node"><title>Rhaenys Targaryen</title>
<polygon fill="#fdd0a2" stroke="#393739" points="140,-246 0,-246 0,-210 140,-210 140,-246"/>
<text text-anchor="middle" x="70" y="-224.3" font-family="Helvetica,sans-Serif" font-size="14.00">Rhaenys Targaryen</text>
</g>
<!-- Aegon Targaryen I -->
<g id="node2" class="node"><title>Aegon Targaryen I</title>
<ellipse fill="#dfeefb" stroke="#393739" cx="168" cy="-156" rx="87.1846" ry="18"/>
<text text-anchor="middle" x="168" y="-152.3" font-family="Helvetica,sans-Serif" font-size="14.00">Aegon Targaryen I</text>
</g>
<!-- Rhaenys Targaryen&#45;&#45;Aegon Targaryen I -->
<g id="edge1" class="edge"><title>Rhaenys Targaryen&#45;&#45;Aegon Targaryen I</title>
<path fill="none" stroke="crimson" d="M103.924,-202.769C113.979,-195.586 124.973,-187.733 134.972,-180.592"/>
<polygon fill="crimson" stroke="crimson" points="103.738,-202.901 101.181,-209.644 93.9735,-209.876 96.5309,-203.134 103.738,-202.901"/>
<polygon fill="crimson" stroke="crimson" points="135.184,-180.44 137.741,-173.698 144.949,-173.465 142.391,-180.207 135.184,-180.44"/>
</g>
<!-- &lt;&gt;Aegon Targaryen IRhaenys Targaryen -->
<g id="node10" class="node"><title>&lt;&gt;Aegon Targaryen IRhaenys Targaryen</title>
<ellipse fill="greenyellow" stroke="black" cx="91" cy="-98.5" rx="3.5" ry="3.5"/>
</g>
<!-- Rhaenys Targaryen&#45;&#45;&lt;&gt;Aegon Targaryen IRhaenys Targaryen -->
<g id="edge17" class="edge"><title>Rhaenys Targaryen&#45;&#45;&lt;&gt;Aegon Targaryen IRhaenys Targaryen</title>
<path fill="none" stroke="black" d="M68.2248,-209.984C66.8303,-191.859 66.0007,-162.467 72,-138 75.6211,-123.232 85.5362,-107.553 89.4149,-101.792"/>
</g>
<!-- &lt;&gt;Aegon Targaryen IVisenya Targaryen -->
<g id="node9" class="node"><title>&lt;&gt;Aegon Targaryen IVisenya Targaryen</title>
<ellipse fill="greenyellow" stroke="black" cx="264" cy="-98.5" rx="3.5" ry="3.5"/>
</g>
<!-- Aegon Targaryen I&#45;&#45;&lt;&gt;Aegon Targaryen IVisenya Targaryen -->
<g id="edge11" class="edge"><title>Aegon Targaryen I&#45;&#45;&lt;&gt;Aegon Targaryen IVisenya Targaryen</title>
<path fill="none" stroke="black" d="M196.025,-138.798C219.934,-124.976 251.889,-106.502 261.291,-101.066"/>
</g>
<!-- Aegon Targaryen I&#45;&#45;&lt;&gt;Aegon Targaryen IRhaenys Targaryen -->
<g id="edge15" class="edge"><title>Aegon Targaryen I&#45;&#45;&lt;&gt;Aegon Targaryen IRhaenys Targaryen</title>
<path fill="none" stroke="black" d="M144.897,-138.348C126.115,-124.81 101.479,-107.053 93.5647,-101.349"/>
</g>
<!-- Visenya Targaryen -->
<g id="node3" class="node"><title>Visenya Targaryen</title>
<polygon fill="#fdd0a2" stroke="#393739" points="330,-246 196,-246 196,-210 330,-210 330,-246"/>
<text text-anchor="middle" x="263" y="-224.3" font-family="Helvetica,sans-Serif" font-size="14.00">Visenya Targaryen</text>
</g>
<!-- Visenya Targaryen&#45;&#45;Aegon Targaryen I -->
<g id="edge2" class="edge"><title>Visenya Targaryen&#45;&#45;Aegon Targaryen I</title>
<path fill="none" stroke="crimson" d="M229.567,-202.365C220.081,-195.376 209.773,-187.78 200.352,-180.838"/>
<polygon fill="crimson" stroke="crimson" points="229.856,-202.578 237.059,-202.917 239.517,-209.697 232.314,-209.358 229.856,-202.578"/>
<polygon fill="crimson" stroke="crimson" points="200.22,-180.741 193.016,-180.402 190.559,-173.622 197.762,-173.961 200.22,-180.741"/>
</g>
<!-- Visenya Targaryen&#45;&#45;&lt;&gt;Aegon Targaryen IVisenya Targaryen -->
<g id="edge13" class="edge"><title>Visenya Targaryen&#45;&#45;&lt;&gt;Aegon Targaryen IVisenya Targaryen</title>
<path fill="none" stroke="black" d="M263.406,-209.815C263.631,-199.444 263.887,-185.963 264,-174 264.266,-145.805 264.079,-111.605 264.018,-102.073"/>
</g>
<!-- Father of Aegon I -->
<g id="node4" class="node"><title>Father of Aegon I</title>
<polygon fill="#dfeefb" stroke="#393739" points="279,-361 151,-361 151,-325 279,-325 279,-361"/>
<text text-anchor="middle" x="215" y="-339.3" font-family="Helvetica,sans-Serif" font-size="14.00">Father of Aegon I</text>
</g>
<!-- &lt;&gt;Father of Aegon I -->
<g id="node8" class="node"><title>&lt;&gt;Father of Aegon I</title>
<ellipse fill="greenyellow" stroke="black" cx="215" cy="-285.5" rx="3.5" ry="3.5"/>
</g>
<!-- Father of Aegon I&#45;&#45;&lt;&gt;Father of Aegon I -->
<g id="edge3" class="edge"><title>Father of Aegon I&#45;&#45;&lt;&gt;Father of Aegon I</title>
<path fill="none" stroke="black" d="M215,-324.744C215,-312.015 215,-295.833 215,-289.362"/>
</g>
<!-- Orys Baratheon -->
<g id="node5" class="node"><title>Orys Baratheon</title>
<polygon fill="#dfeefb" stroke="#393739" points="463.5,-246 348.5,-246 348.5,-210 463.5,-210 463.5,-246"/>
<text text-anchor="middle" x="406" y="-224.3" font-family="Helvetica,sans-Serif" font-size="14.00">Orys Baratheon</text>
</g>
<!-- Maegor Targaryen I -->
<g id="node6" class="node"><title>Maegor Targaryen I</title>
<polygon fill="#dfeefb" stroke="#393739" points="334,-59 194,-59 194,-23 334,-23 334,-59"/>
<text text-anchor="middle" x="264" y="-37.3" font-family="Helvetica,sans-Serif" font-size="14.00">Maegor Targaryen I</text>
</g>
<!-- Aenys Targaryen I -->
<g id="node7" class="node"><title>Aenys Targaryen I</title>
<polygon fill="#e989ff" stroke="#393739" points="157,-59 25,-59 25,-23 157,-23 157,-59"/>
<text text-anchor="middle" x="91" y="-37.3" font-family="Helvetica,sans-Serif" font-size="14.00">Aenys Targaryen I</text>
</g>
<!-- &lt;&gt;Father of Aegon I&#45;&#45;Rhaenys Targaryen -->
<g id="edge8" class="edge"><title>&lt;&gt;Father of Aegon I&#45;&#45;Rhaenys Targaryen</title>
<path fill="none" stroke="black" d="M211.971,-283.341C199.567,-278.593 151.561,-260.218 114.771,-246.137"/>
</g>
<!-- &lt;&gt;Father of Aegon I&#45;&#45;Aegon Targaryen I -->
<g id="edge4" class="edge"><title>&lt;&gt;Father of Aegon I&#45;&#45;Aegon Targaryen I</title>
<path fill="none" stroke="black" d="M212.854,-282.286C207.57,-276.703 193.868,-261.398 187,-246 176.445,-222.336 171.616,-192.466 169.508,-174.053"/>
</g>
<!-- &lt;&gt;Father of Aegon I&#45;&#45;Visenya Targaryen -->
<g id="edge6" class="edge"><title>&lt;&gt;Father of Aegon I&#45;&#45;Visenya Targaryen</title>
<path fill="none" stroke="black" d="M217.063,-282.115C222.374,-275.974 236.898,-259.181 248.207,-246.105"/>
</g>
<!-- &lt;&gt;Father of Aegon I&#45;&#45;Orys Baratheon -->
<g id="edge10" class="edge"><title>&lt;&gt;Father of Aegon I&#45;&#45;Orys Baratheon</title>
<path fill="none" stroke="black" d="M218,-283.628C232.713,-279.353 298.529,-260.229 348.171,-245.804"/>
</g>
<!-- &lt;&gt;Aegon Targaryen IVisenya Targaryen&#45;&#45;Maegor Targaryen I -->
<g id="edge12" class="edge"><title>&lt;&gt;Aegon Targaryen IVisenya Targaryen&#45;&#45;Maegor Targaryen I</title>
<path fill="none" stroke="black" d="M264,-94.8231C264,-88.4571 264,-71.9849 264,-59.1118"/>
</g>
<!-- &lt;&gt;Aegon Targaryen IRhaenys Targaryen&#45;&#45;Aenys Targaryen I -->
<g id="edge16" class="edge"><title>&lt;&gt;Aegon Targaryen IRhaenys Targaryen&#45;&#45;Aenys Targaryen I</title>
<path fill="none" stroke="black" d="M91,-94.8231C91,-88.4571 91,-71.9849 91,-59.1118"/>
</g>
<!-- Male -->
<g id="node11" class="node"><title>Male</title>
<polygon fill="#dfeefb" stroke="black" points="507,-361 453,-361 453,-325 507,-325 507,-361"/>
<text text-anchor="middle" x="480" y="-339.3" font-family="Helvetica,sans-Serif" font-size="14.00">Male</text>
</g>
<!-- Female -->
<g id="node12" class="node"><title>Female</title>
<polygon fill="#fdd0a2" stroke="black" points="434.5,-361 369.5,-361 369.5,-325 434.5,-325 434.5,-361"/>
<text text-anchor="middle" x="402" y="-339.3" font-family="Helvetica,sans-Serif" font-size="14.00">Female</text>
</g>
<!-- Other -->
<g id="node13" class="node"><title>Other</title>
<polygon fill="#e989ff" stroke="black" points="351,-361 297,-361 297,-325 351,-325 351,-361"/>
<text text-anchor="middle" x="324" y="-339.3" font-family="Helvetica,sans-Serif" font-size="14.00">Other</text>
</g>
</g>
</svg>
