<?xml version="1.0" encoding="UTF-8" standalone="no"?>
<!DOCTYPE svg PUBLIC "-//W3C//DTD SVG 1.1//EN"
 "http://www.w3.org/Graphics/SVG/1.1/DTD/svg11.dtd">
<!-- Generated by graphviz version 2.38.0 (20140413.2041)
 -->
<!-- Title: s Pages: 1 -->
<svg width="637pt" height="322pt"
 viewBox="0.00 0.00 636.50 322.00" xmlns="http://www.w3.org/2000/svg" xmlns:xlink="http://www.w3.org/1999/xlink">
<g id="graph0" class="graph" transform="scale(1 1) rotate(0) translate(4 318)">
<title>s</title>
<polygon fill="white" stroke="none" points="-4,4 -4,-318 632.5,-318 632.5,4 -4,4"/>
<text text-anchor="middle" x="314.25" y="-7.8" font-family="Helvetica,sans-Serif" font-size="14.00">Immediate Family Tree for Jon Snow</text>
<g id="clust1" class="cluster"><title>cluster_0</title>
<polygon fill="none" stroke="black" points="394.5,-231 394.5,-306 620.5,-306 620.5,-231 394.5,-231"/>
<text text-anchor="middle" x="507.5" y="-290.8" font-family="Helvetica,sans-Serif" font-size="14.00">Legend</text>
</g>
<!-- Eddard &#39;Ned&#39; Stark -->
<g id="node1" class="node"><title>Eddard &#39;Ned&#39; Stark</title>
<polygon fill="#dfeefb" stroke="#393739" points="384,-275 249,-275 249,-239 384,-239 384,-275"/>
<text text-anchor="middle" x="316.5" y="-253.3" font-family="Helvetica,sans-Serif" font-size="14.00">Eddard &#39;Ned&#39; Stark</text>
</g>
<!-- Catelyn Stark -->
<g id="node2" class="node"><title>Catelyn Stark</title>
<polygon fill="#fdd0a2" stroke="#393739" points="288.5,-203 188.5,-203 188.5,-167 288.5,-167 288.5,-203"/>
<text text-anchor="middle" x="238.5" y="-181.3" font-family="Helvetica,sans-Serif" font-size="14.00">Catelyn Stark</text>
</g>
<!-- Eddard &#39;Ned&#39; Stark&#45;&#45;Catelyn Stark -->
<g id="edge1" class="edge"><title>Eddard &#39;Ned&#39; Stark&#45;&#45;Catelyn Stark</title>
<path fill="none" stroke="crimson" d="M288.242,-230.64C281.231,-224.348 273.717,-217.605 266.709,-211.316"/>
<polygon fill="crimson" stroke="crimson" points="288.288,-230.682 295.425,-231.712 297.219,-238.697 290.082,-237.666 288.288,-230.682"/>
<polygon fill="crimson" stroke="crimson" points="266.49,-211.119 259.353,-210.089 257.559,-203.104 264.696,-204.135 266.49,-211.119"/>
</g>
<!-- &lt;&gt;Eddard &#39;Ned&#39; Stark -->
<g id="node9" class="node"><title>&lt;&gt;Eddard &#39;Ned&#39; Stark</title>
<ellipse fill="greenyellow" stroke="black" cx="348.5" cy="-185" rx="3.5" ry="3.5"/>
</g>
<!-- Eddard &#39;Ned&#39; Stark&#45;&#45;&lt;&gt;Eddard &#39;Ned&#39; Stark -->
<g id="edge2" class="edge"><title>Eddard &#39;Ned&#39; Stark&#45;&#45;&lt;&gt;Eddard &#39;Ned&#39; Stark</title>
<path fill="none" stroke="black" d="M324.41,-238.697C332.258,-221.53 343.628,-196.657 347.305,-188.614"/>
</g>
<!-- &lt;&gt;Catelyn StarkEddard &#39;Ned&#39; Stark -->
<g id="node10" class="node"><title>&lt;&gt;Catelyn StarkEddard &#39;Ned&#39; Stark</title>
<ellipse fill="greenyellow" stroke="black" cx="257.5" cy="-113" rx="3.5" ry="3.5"/>
</g>
<!-- Eddard &#39;Ned&#39; Stark&#45;&#45;&lt;&gt;Catelyn StarkEddard &#39;Ned&#39; Stark -->
<g id="edge6" class="edge"><title>Eddard &#39;Ned&#39; Stark&#45;&#45;&lt;&gt;Catelyn StarkEddard &#39;Ned&#39; Stark</title>
<path fill="none" stroke="black" d="M315.073,-238.91C313.035,-220.466 308.264,-190.57 297.5,-167 287.347,-144.77 266.578,-123.011 259.739,-116.189"/>
</g>
<!-- Catelyn Stark&#45;&#45;&lt;&gt;Catelyn StarkEddard &#39;Ned&#39; Stark -->
<g id="edge4" class="edge"><title>Catelyn Stark&#45;&#45;&lt;&gt;Catelyn StarkEddard &#39;Ned&#39; Stark</title>
<path fill="none" stroke="black" d="M243.197,-166.697C247.856,-149.53 254.607,-124.657 256.791,-116.614"/>
</g>
<!-- Jon Snow -->
<g id="node3" class="node"><title>Jon Snow</title>
<ellipse fill="#dfeefb" stroke="#393739" cx="348.5" cy="-113" rx="51.1914" ry="18"/>
<text text-anchor="middle" x="348.5" y="-109.3" font-family="Helvetica,sans-Serif" font-size="14.00">Jon Snow</text>
</g>
<!-- Arya Stark -->
<g id="node4" class="node"><title>Arya Stark</title>
<polygon fill="#fdd0a2" stroke="#393739" points="81,-59 0,-59 0,-23 81,-23 81,-59"/>
<text text-anchor="middle" x="40.5" y="-37.3" font-family="Helvetica,sans-Serif" font-size="14.00">Arya Stark</text>
</g>
<!-- Rickon Stark -->
<g id="node5" class="node"><title>Rickon Stark</title>
<polygon fill="#dfeefb" stroke="#393739" points="195.5,-59 99.5,-59 99.5,-23 195.5,-23 195.5,-59"/>
<text text-anchor="middle" x="147.5" y="-37.3" font-family="Helvetica,sans-Serif" font-size="14.00">Rickon Stark</text>
</g>
<!-- Robb Stark -->
<g id="node6" class="node"><title>Robb Stark</title>
<polygon fill="#dfeefb" stroke="#393739" points="301.5,-59 213.5,-59 213.5,-23 301.5,-23 301.5,-59"/>
<text text-anchor="middle" x="257.5" y="-37.3" font-family="Helvetica,sans-Serif" font-size="14.00">Robb Stark</text>
</g>
<!-- Sansa Stark -->
<g id="node7" class="node"><title>Sansa Stark</title>
<polygon fill="#fdd0a2" stroke="#393739" points="411.5,-59 319.5,-59 319.5,-23 411.5,-23 411.5,-59"/>
<text text-anchor="middle" x="365.5" y="-37.3" font-family="Helvetica,sans-Serif" font-size="14.00">Sansa Stark</text>
</g>
<!-- Bran Stark -->
<g id="node8" class="node"><title>Bran Stark</title>
<polygon fill="#dfeefb" stroke="#393739" points="511.5,-59 429.5,-59 429.5,-23 511.5,-23 511.5,-59"/>
<text text-anchor="middle" x="470.5" y="-37.3" font-family="Helvetica,sans-Serif" font-size="14.00">Bran Stark</text>
</g>
<!-- &lt;&gt;Eddard &#39;Ned&#39; Stark&#45;&#45;Jon Snow -->
<g id="edge3" class="edge"><title>&lt;&gt;Eddard &#39;Ned&#39; Stark&#45;&#45;Jon Snow</title>
<path fill="none" stroke="black" d="M348.5,-181.341C348.5,-173.25 348.5,-148.432 348.5,-131.298"/>
</g>
<!-- &lt;&gt;Catelyn StarkEddard &#39;Ned&#39; Stark&#45;&#45;Arya Stark -->
<g id="edge5" class="edge"><title>&lt;&gt;Catelyn StarkEddard &#39;Ned&#39; Stark&#45;&#45;Arya Stark</title>
<path fill="none" stroke="black" d="M254.308,-111.014C237.379,-105.777 156.386,-80.6532 90.5,-59 87.4514,-57.9981 84.3018,-56.9524 81.1358,-55.8936"/>
</g>
<!-- &lt;&gt;Catelyn StarkEddard &#39;Ned&#39; Stark&#45;&#45;Rickon Stark -->
<g id="edge9" class="edge"><title>&lt;&gt;Catelyn StarkEddard &#39;Ned&#39; Stark&#45;&#45;Rickon Stark</title>
<path fill="none" stroke="black" d="M254.781,-110.27C243.863,-103.322 202.452,-76.9697 174.391,-59.1127"/>
</g>
<!-- &lt;&gt;Catelyn StarkEddard &#39;Ned&#39; Stark&#45;&#45;Robb Stark -->
<g id="edge13" class="edge"><title>&lt;&gt;Catelyn StarkEddard &#39;Ned&#39; Stark&#45;&#45;Robb Stark</title>
<path fill="none" stroke="black" d="M257.5,-109.341C257.5,-101.25 257.5,-76.4323 257.5,-59.2978"/>
</g>
<!-- &lt;&gt;Catelyn StarkEddard &#39;Ned&#39; Stark&#45;&#45;Sansa Stark -->
<g id="edge17" class="edge"><title>&lt;&gt;Catelyn StarkEddard &#39;Ned&#39; Stark&#45;&#45;Sansa Stark</title>
<path fill="none" stroke="black" d="M260.17,-110.27C270.889,-103.322 311.547,-76.9697 339.098,-59.1127"/>
</g>
<!-- &lt;&gt;Catelyn StarkEddard &#39;Ned&#39; Stark&#45;&#45;Bran Stark -->
<g id="edge21" class="edge"><title>&lt;&gt;Catelyn StarkEddard &#39;Ned&#39; Stark&#45;&#45;Bran Stark</title>
<path fill="none" stroke="black" d="M259.972,-110.379C265.1,-107.077 277.345,-99.5063 288.5,-95 344.882,-72.2229 362.353,-76.7958 420.5,-59 423.393,-58.1146 426.371,-57.1749 429.364,-56.2097"/>
</g>
<!-- Male -->
<g id="node11" class="node"><title>Male</title>
<polygon fill="#dfeefb" stroke="black" points="612.5,-275 558.5,-275 558.5,-239 612.5,-239 612.5,-275"/>
<text text-anchor="middle" x="585.5" y="-253.3" font-family="Helvetica,sans-Serif" font-size="14.00">Male</text>
</g>
<!-- Female -->
<g id="node12" class="node"><title>Female</title>
<polygon fill="#fdd0a2" stroke="black" points="540,-275 475,-275 475,-239 540,-239 540,-275"/>
<text text-anchor="middle" x="507.5" y="-253.3" font-family="Helvetica,sans-Serif" font-size="14.00">Female</text>
</g>
<!-- Other -->
<g id="node13" class="node"><title>Other</title>
<polygon fill="#e989ff" stroke="black" points="456.5,-275 402.5,-275 402.5,-239 456.5,-239 456.5,-275"/>
<text text-anchor="middle" x="429.5" y="-253.3" font-family="Helvetica,sans-Serif" font-size="14.00">Other</text>
</g>
</g>
</svg>
