<?xml version="1.0" encoding="UTF-8" standalone="no"?>
<!DOCTYPE svg PUBLIC "-//W3C//DTD SVG 1.1//EN"
 "http://www.w3.org/Graphics/SVG/1.1/DTD/svg11.dtd">
<!-- Generated by graphviz version 2.38.0 (20140413.2041)
 -->
<!-- Title: s Pages: 1 -->
<svg width="1020pt" height="84pt"
 viewBox="0.00 0.00 1020.00 84.00" xmlns="http://www.w3.org/2000/svg" xmlns:xlink="http://www.w3.org/1999/xlink">
<g id="graph0" class="graph" transform="scale(1 1) rotate(0) translate(4 80)">
<title>s</title>
<polygon fill="white" stroke="none" points="-4,4 -4,-80 1016,-80 1016,4 -4,4"/>
<text text-anchor="middle" x="506" y="-7.8" font-family="Helvetica,sans-Serif" font-size="14.00">Plot Points of Book 1</text>
<!-- Robert&#39;s Rebellion -->
<g id="node1" class="node"><title>Robert&#39;s Rebellion</title>
<polygon fill="#f0fff0" stroke="black" points="162,-76 0,-76 0,-23 162,-23 162,-76"/>
<text text-anchor="middle" x="81" y="-60.8" font-family="Helvetica,sans-Serif" font-size="14.00">Robert&#39;s Rebellion</text>
<text text-anchor="middle" x="81" y="-45.8" font-family="Helvetica,sans-Serif" font-size="14.00">Source: Before Book 1</text>
<text text-anchor="middle" x="81" y="-30.8" font-family="Helvetica,sans-Serif" font-size="14.00">Date: 280AC &#45; 281AC</text>
</g>
<!-- Jon Arryn is Poisoned -->
<g id="node2" class="node"><title>Jon Arryn is Poisoned</title>
<polygon fill="#f0fff0" stroke="black" points="360,-76 198,-76 198,-23 360,-23 360,-76"/>
<text text-anchor="middle" x="279" y="-60.8" font-family="Helvetica,sans-Serif" font-size="14.00">Jon Arryn is Poisoned</text>
<text text-anchor="middle" x="279" y="-45.8" font-family="Helvetica,sans-Serif" font-size="14.00">Source: Before Book 1</text>
<text text-anchor="middle" x="279" y="-30.8" font-family="Helvetica,sans-Serif" font-size="14.00">Date: 298AC</text>
</g>
<!-- Robert&#39;s Rebellion&#45;&gt;Jon Arryn is Poisoned -->
<g id="edge1" class="edge"><title>Robert&#39;s Rebellion&#45;&gt;Jon Arryn is Poisoned</title>
<path fill="none" stroke="black" d="M162.003,-49.5C170.524,-49.5 179.234,-49.5 187.861,-49.5"/>
<polygon fill="black" stroke="black" points="187.935,-53.0001 197.935,-49.5 187.935,-46.0001 187.935,-53.0001"/>
</g>
<!-- Eddard Stark is Appointed as Hand of the King -->
<g id="node3" class="node"><title>Eddard Stark is Appointed as Hand of the King</title>
<polygon fill="#f0fff0" stroke="black" points="706,-68.5 396,-68.5 396,-30.5 706,-30.5 706,-68.5"/>
<text text-anchor="middle" x="551" y="-53.3" font-family="Helvetica,sans-Serif" font-size="14.00">Eddard Stark is Appointed as Hand of the King</text>
<text text-anchor="middle" x="551" y="-38.3" font-family="Helvetica,sans-Serif" font-size="14.00">Date: 298AC</text>
</g>
<!-- Jon Arryn is Poisoned&#45;&gt;Eddard Stark is Appointed as Hand of the King -->
<g id="edge2" class="edge"><title>Jon Arryn is Poisoned&#45;&gt;Eddard Stark is Appointed as Hand of the King</title>
<path fill="none" stroke="black" d="M360.278,-49.5C368.434,-49.5 376.911,-49.5 385.557,-49.5"/>
<polygon fill="black" stroke="black" points="385.776,-53.0001 395.776,-49.5 385.776,-46.0001 385.776,-53.0001"/>
</g>
<!-- Daenarys Targaryen marries Khal Drogo -->
<g id="node4" class="node"><title>Daenarys Targaryen marries Khal Drogo</title>
<polygon fill="#f0fff0" stroke="black" points="1012,-68.5 742,-68.5 742,-30.5 1012,-30.5 1012,-68.5"/>
<text text-anchor="middle" x="877" y="-53.3" font-family="Helvetica,sans-Serif" font-size="14.00">Daenarys Targaryen marries Khal Drogo</text>
<text text-anchor="middle" x="877" y="-38.3" font-family="Helvetica,sans-Serif" font-size="14.00">Date: 298AC</text>
</g>
<!-- Eddard Stark is Appointed as Hand of the King&#45;&gt;Daenarys Targaryen marries Khal Drogo -->
<g id="edge3" class="edge"><title>Eddard Stark is Appointed as Hand of the King&#45;&gt;Daenarys Targaryen marries Khal Drogo</title>
<path fill="none" stroke="black" d="M706.409,-49.5C714.752,-49.5 723.121,-49.5 731.429,-49.5"/>
<polygon fill="black" stroke="black" points="731.527,-53.0001 741.527,-49.5 731.527,-46.0001 731.527,-53.0001"/>
</g>
</g>
</svg>
