<?xml version="1.0" encoding="UTF-8" standalone="no"?>
<!DOCTYPE svg PUBLIC "-//W3C//DTD SVG 1.1//EN"
 "http://www.w3.org/Graphics/SVG/1.1/DTD/svg11.dtd">
<!-- Generated by graphviz version 2.38.0 (20140413.2041)
 -->
<!-- Title: s Pages: 1 -->
<svg width="566pt" height="84pt"
 viewBox="0.00 0.00 566.00 84.00" xmlns="http://www.w3.org/2000/svg" xmlns:xlink="http://www.w3.org/1999/xlink">
<g id="graph0" class="graph" transform="scale(1 1) rotate(0) translate(4 80)">
<title>s</title>
<polygon fill="white" stroke="none" points="-4,4 -4,-80 562,-80 562,4 -4,4"/>
<text text-anchor="middle" x="279" y="-7.8" font-family="Helvetica,sans-Serif" font-size="14.00">The Birth of Three Main Characters</text>
<!-- Theon Greyjoy is Born -->
<g id="node1" class="node"><title>Theon Greyjoy is Born</title>
<polygon fill="#f0fff0" stroke="black" points="162,-76 0,-76 0,-23 162,-23 162,-76"/>
<text text-anchor="middle" x="81" y="-60.8" font-family="Helvetica,sans-Serif" font-size="14.00">Theon Greyjoy is Born</text>
<text text-anchor="middle" x="81" y="-45.8" font-family="Helvetica,sans-Serif" font-size="14.00">Source: Before Book 1</text>
<text text-anchor="middle" x="81" y="-30.8" font-family="Helvetica,sans-Serif" font-size="14.00">Date: 281AC</text>
</g>
<!-- Robb Stark is Born -->
<g id="node2" class="node"><title>Robb Stark is Born</title>
<polygon fill="#f0fff0" stroke="black" points="360,-76 198,-76 198,-23 360,-23 360,-76"/>
<text text-anchor="middle" x="279" y="-60.8" font-family="Helvetica,sans-Serif" font-size="14.00">Robb Stark is Born</text>
<text text-anchor="middle" x="279" y="-45.8" font-family="Helvetica,sans-Serif" font-size="14.00">Source: Before Book 1</text>
<text text-anchor="middle" x="279" y="-30.8" font-family="Helvetica,sans-Serif" font-size="14.00">Date: 281AC</text>
</g>
<!-- Theon Greyjoy is Born&#45;&gt;Robb Stark is Born -->
<g id="edge1" class="edge"><title>Theon Greyjoy is Born&#45;&gt;Robb Stark is Born</title>
<path fill="none" stroke="black" d="M162.003,-49.5C170.524,-49.5 179.234,-49.5 187.861,-49.5"/>
<polygon fill="black" stroke="black" points="187.935,-53.0001 197.935,-49.5 187.935,-46.0001 187.935,-53.0001"/>
</g>
<!-- Jon Snow is Born -->
<g id="node3" class="node"><title>Jon Snow is Born</title>
<polygon fill="#f0fff0" stroke="black" points="558,-76 396,-76 396,-23 558,-23 558,-76"/>
<text text-anchor="middle" x="477" y="-60.8" font-family="Helvetica,sans-Serif" font-size="14.00">Jon Snow is Born</text>
<text text-anchor="middle" x="477" y="-45.8" font-family="Helvetica,sans-Serif" font-size="14.00">Source: Before Book 1</text>
<text text-anchor="middle" x="477" y="-30.8" font-family="Helvetica,sans-Serif" font-size="14.00">Date: 281AC</text>
</g>
<!-- Robb Stark is Born&#45;&gt;Jon Snow is Born -->
<g id="edge2" class="edge"><title>Robb Stark is Born&#45;&gt;Jon Snow is Born</title>
<path fill="none" stroke="black" d="M360.003,-49.5C368.524,-49.5 377.234,-49.5 385.861,-49.5"/>
<polygon fill="black" stroke="black" points="385.935,-53.0001 395.935,-49.5 385.935,-46.0001 385.935,-53.0001"/>
</g>
</g>
</svg>
