<?xml version="1.0" encoding="UTF-8" standalone="no"?>
<!DOCTYPE svg PUBLIC "-//W3C//DTD SVG 1.1//EN"
 "http://www.w3.org/Graphics/SVG/1.1/DTD/svg11.dtd">
<!-- Generated by graphviz version 2.38.0 (20140413.2041)
 -->
<!-- Title: s Pages: 1 -->
<svg width="797pt" height="716pt"
 viewBox="0.00 0.00 796.80 715.90" xmlns="http://www.w3.org/2000/svg" xmlns:xlink="http://www.w3.org/1999/xlink">
<g id="graph0" class="graph" transform="scale(1 1) rotate(0) translate(410.193 341.321)">
<title>s</title>
<polygon fill="white" stroke="none" points="-410.193,374.575 -410.193,-341.321 386.607,-341.321 386.607,374.575 -410.193,374.575"/>
<text text-anchor="middle" x="-11.793" y="362.775" font-family="Helvetica,sans-Serif" font-size="14.00">Event Map with Participants for Castle Black</text>
<!-- Castle Black -->
<g id="node1" class="node"><title>Castle Black</title>
<polygon fill="#d9ffd9" stroke="black" points="-20.2184,-57.5764 -115.218,-57.5764 -115.218,-21.5764 -20.2184,-21.5764 -20.2184,-57.5764"/>
<text text-anchor="middle" x="-67.7184" y="-35.8764" font-family="Helvetica,sans-Serif" font-size="14.00">Castle Black</text>
</g>
<!-- Jon Snow Joins the Night&#39;s Watch -->
<g id="node2" class="node"><title>Jon Snow Joins the Night&#39;s Watch</title>
<polygon fill="#fff790" stroke="black" points="-8.12707,123.849 -238.127,123.849 -238.127,176.849 -8.12707,176.849 -8.12707,123.849"/>
<text text-anchor="middle" x="-123.127" y="139.049" font-family="Helvetica,sans-Serif" font-size="14.00">Jon Snow Joins the Night&#39;s Watch</text>
<text text-anchor="middle" x="-123.127" y="154.049" font-family="Helvetica,sans-Serif" font-size="14.00">Source: Book 1</text>
<text text-anchor="middle" x="-123.127" y="169.049" font-family="Helvetica,sans-Serif" font-size="14.00">Date: 298AC</text>
</g>
<!-- Jon Snow Joins the Night&#39;s Watch&#45;&#45;Castle Black -->
<g id="edge1" class="edge"><title>Jon Snow Joins the Night&#39;s Watch&#45;&#45;Castle Black</title>
<path fill="none" stroke="black" d="M-115.306,123.54C-103.851,84.2752 -82.8103,12.1546 -73.0061,-21.4516"/>
</g>
<!-- part3 -->
<g id="node3" class="node"><title>part3</title>
<ellipse fill="#ffc6d1" stroke="black" cx="-171.885" cy="329.575" rx="67.6881" ry="18"/>
<text text-anchor="middle" x="-171.885" y="333.275" font-family="Helvetica,sans-Serif" font-size="14.00">Samwell Tarly</text>
</g>
<!-- part3&#45;&#45;Jon Snow Joins the Night&#39;s Watch -->
<g id="edge2" class="edge"><title>part3&#45;&#45;Jon Snow Joins the Night&#39;s Watch</title>
<path fill="none" stroke="black" d="M-166.941,311.404C-158.298,279.633 -140.407,213.866 -130.366,176.958"/>
</g>
<!-- A Wight Attacks Jeor Mormont -->
<g id="node4" class="node"><title>A Wight Attacks Jeor Mormont</title>
<polygon fill="#fff790" stroke="black" points="228.953,-113.282 19.9532,-113.282 19.9532,-60.2821 228.953,-60.2821 228.953,-113.282"/>
<text text-anchor="middle" x="124.453" y="-98.0821" font-family="Helvetica,sans-Serif" font-size="14.00">A Wight Attacks Jeor Mormont</text>
<text text-anchor="middle" x="124.453" y="-83.0821" font-family="Helvetica,sans-Serif" font-size="14.00">Source: Book 1</text>
<text text-anchor="middle" x="124.453" y="-68.0821" font-family="Helvetica,sans-Serif" font-size="14.00">Date: 298AC</text>
</g>
<!-- A Wight Attacks Jeor Mormont&#45;&#45;Castle Black -->
<g id="edge3" class="edge"><title>A Wight Attacks Jeor Mormont&#45;&#45;Castle Black</title>
<path fill="none" stroke="black" d="M19.9321,-61.1071C6.02293,-57.6905 -7.64861,-54.3321 -19.9046,-51.3215"/>
</g>
<!-- part4 -->
<g id="node5" class="node"><title>part4</title>
<ellipse fill="#ffc6d1" stroke="black" cx="304.565" cy="-132.316" rx="67.6881" ry="18"/>
<text text-anchor="middle" x="304.565" y="-128.616" font-family="Helvetica,sans-Serif" font-size="14.00">Jeor Mormont</text>
</g>
<!-- part4&#45;&#45;A Wight Attacks Jeor Mormont -->
<g id="edge4" class="edge"><title>part4&#45;&#45;A Wight Attacks Jeor Mormont</title>
<path fill="none" stroke="black" d="M255.349,-119.874C247.016,-117.767 238.092,-115.511 228.964,-113.204"/>
</g>
<!-- Tyrion goes to Castle Black -->
<g id="node6" class="node"><title>Tyrion goes to Castle Black</title>
<polygon fill="#fff790" stroke="black" points="-110.139,-208.428 -300.139,-208.428 -300.139,-155.428 -110.139,-155.428 -110.139,-208.428"/>
<text text-anchor="middle" x="-205.139" y="-193.228" font-family="Helvetica,sans-Serif" font-size="14.00">Tyrion goes to Castle Black</text>
<text text-anchor="middle" x="-205.139" y="-178.228" font-family="Helvetica,sans-Serif" font-size="14.00">Source: Book 1</text>
<text text-anchor="middle" x="-205.139" y="-163.228" font-family="Helvetica,sans-Serif" font-size="14.00">Date: 298AC</text>
</g>
<!-- Tyrion goes to Castle Black&#45;&#45;Castle Black -->
<g id="edge5" class="edge"><title>Tyrion goes to Castle Black&#45;&#45;Castle Black</title>
<path fill="none" stroke="black" d="M-179.291,-155.153C-151.768,-126.642 -108.968,-82.306 -85.1728,-57.6573"/>
</g>
<!-- part5 -->
<g id="node7" class="node"><title>part5</title>
<ellipse fill="#ffc6d1" stroke="black" cx="-330.15" cy="-319.321" rx="76.0865" ry="18"/>
<text text-anchor="middle" x="-330.15" y="-315.621" font-family="Helvetica,sans-Serif" font-size="14.00">Tyrion Lannister</text>
</g>
<!-- part5&#45;&#45;Tyrion goes to Castle Black -->
<g id="edge6" class="edge"><title>part5&#45;&#45;Tyrion goes to Castle Black</title>
<path fill="none" stroke="black" d="M-314.063,-301.641C-292.565,-278.013 -254.284,-235.941 -229.308,-208.491"/>
</g>
<!-- Location -->
<g id="node8" class="node"><title>Location</title>
<polygon fill="#d9ffd9" stroke="black" points="187.131,80.4071 116.131,80.4071 116.131,116.407 187.131,116.407 187.131,80.4071"/>
<text text-anchor="middle" x="151.631" y="102.107" font-family="Helvetica,sans-Serif" font-size="14.00">Location</text>
</g>
<!-- Event -->
<g id="node9" class="node"><title>Event</title>
<polygon fill="#fff790" stroke="black" points="266.708,63.7384 212.708,63.7384 212.708,99.7384 266.708,99.7384 266.708,63.7384"/>
<text text-anchor="middle" x="239.708" y="85.4384" font-family="Helvetica,sans-Serif" font-size="14.00">Event</text>
</g>
<!-- Location&#45;&#45;Event -->
<g id="edge7" class="edge"><title>Location&#45;&#45;Event</title>
<path fill="none" stroke="black" d="M187.201,91.6753C195.699,90.067 204.635,88.376 212.676,86.8541"/>
</g>
<!-- Participant -->
<g id="node10" class="node"><title>Participant</title>
<ellipse fill="#ffc6d1" stroke="black" cx="328.662" cy="92.8545" rx="53.8905" ry="18"/>
<text text-anchor="middle" x="328.662" y="96.5545" font-family="Helvetica,sans-Serif" font-size="14.00">Participant</text>
</g>
<!-- Event&#45;&#45;Participant -->
<g id="edge8" class="edge"><title>Event&#45;&#45;Participant</title>
<path fill="none" stroke="black" d="M266.88,85.134C270.457,85.5809 274.21,86.05 278.025,86.5267"/>
</g>
</g>
</svg>
