<?xml version="1.0" encoding="UTF-8" standalone="no"?>
<!DOCTYPE svg PUBLIC "-//W3C//DTD SVG 1.1//EN"
 "http://www.w3.org/Graphics/SVG/1.1/DTD/svg11.dtd">
<!-- Generated by graphviz version 2.38.0 (20140413.2041)
 -->
<!-- Title: s Pages: 1 -->
<svg width="1522pt" height="1278pt"
 viewBox="0.00 0.00 1522.39 1278.02" xmlns="http://www.w3.org/2000/svg" xmlns:xlink="http://www.w3.org/1999/xlink">
<g id="graph0" class="graph" transform="scale(1 1) rotate(0) translate(731.779 626.56)">
<title>s</title>
<polygon fill="white" stroke="none" points="-731.779,651.463 -731.779,-626.56 790.607,-626.56 790.607,651.463 -731.779,651.463"/>
<text text-anchor="middle" x="29.4138" y="639.663" font-family="Helvetica,sans-Serif" font-size="14.00">Event Map with Participants for Westeros</text>
<!-- Westeros -->
<g id="node1" class="node"><title>Westeros</title>
<polygon fill="#d9ffd9" stroke="black" points="53.6676,-68.1867 -25.3324,-68.1867 -25.3324,-32.1867 53.6676,-32.1867 53.6676,-68.1867"/>
<text text-anchor="middle" x="14.1676" y="-46.4867" font-family="Helvetica,sans-Serif" font-size="14.00">Westeros</text>
</g>
<!-- The Dawn Age -->
<g id="node2" class="node"><title>The Dawn Age</title>
<polygon fill="#fff790" stroke="black" points="53.3722,-338.746 -141.628,-338.746 -141.628,-285.746 53.3722,-285.746 53.3722,-338.746"/>
<text text-anchor="middle" x="-44.1278" y="-323.546" font-family="Helvetica,sans-Serif" font-size="14.00">The Dawn Age</text>
<text text-anchor="middle" x="-44.1278" y="-308.546" font-family="Helvetica,sans-Serif" font-size="14.00">Source: Before Book 1</text>
<text text-anchor="middle" x="-44.1278" y="-293.546" font-family="Helvetica,sans-Serif" font-size="14.00">Date: Prehistory &#45; 10,000BC</text>
</g>
<!-- The Dawn Age&#45;&#45;Westeros -->
<g id="edge1" class="edge"><title>The Dawn Age&#45;&#45;Westeros</title>
<path fill="none" stroke="black" d="M-38.2173,-285.676C-26.3784,-232.456 -0.0257753,-113.991 10.0979,-68.4817"/>
</g>
<!-- The Age of Heroes -->
<g id="node3" class="node"><title>The Age of Heroes</title>
<polygon fill="#fff790" stroke="black" points="438.569,-289.91 258.569,-289.91 258.569,-236.91 438.569,-236.91 438.569,-289.91"/>
<text text-anchor="middle" x="348.569" y="-274.71" font-family="Helvetica,sans-Serif" font-size="14.00">The Age of Heroes</text>
<text text-anchor="middle" x="348.569" y="-259.71" font-family="Helvetica,sans-Serif" font-size="14.00">Source: Before Book 1</text>
<text text-anchor="middle" x="348.569" y="-244.71" font-family="Helvetica,sans-Serif" font-size="14.00">Date: 8,000BC &#45; 6,000BC</text>
</g>
<!-- The Age of Heroes&#45;&#45;Westeros -->
<g id="edge2" class="edge"><title>The Age of Heroes&#45;&#45;Westeros</title>
<path fill="none" stroke="black" d="M306.893,-236.836C237.911,-192.851 101.751,-106.032 42.6537,-68.3502"/>
</g>
<!-- part6 -->
<g id="node4" class="node"><title>part6</title>
<ellipse fill="#ffc6d1" stroke="black" cx="476.908" cy="-552.923" rx="50.0912" ry="18"/>
<text text-anchor="middle" x="476.908" y="-549.223" font-family="Helvetica,sans-Serif" font-size="14.00">Azor Ahai</text>
</g>
<!-- part6&#45;&#45;The Age of Heroes -->
<g id="edge3" class="edge"><title>part6&#45;&#45;The Age of Heroes</title>
<path fill="none" stroke="black" d="M468.88,-534.812C446.984,-485.419 386.15,-348.186 360.364,-290.016"/>
</g>
<!-- part7 -->
<g id="node5" class="node"><title>part7</title>
<ellipse fill="#ffc6d1" stroke="black" cx="607.024" cy="-417.904" rx="75.2868" ry="18"/>
<text text-anchor="middle" x="607.024" y="-414.204" font-family="Helvetica,sans-Serif" font-size="14.00">Lann the Clever</text>
</g>
<!-- part7&#45;&#45;The Age of Heroes -->
<g id="edge4" class="edge"><title>part7&#45;&#45;The Age of Heroes</title>
<path fill="none" stroke="black" d="M578.873,-401.076C534.129,-374.33 446.402,-321.89 393.079,-290.016"/>
</g>
<!-- part8 -->
<g id="node6" class="node"><title>part8</title>
<ellipse fill="#ffc6d1" stroke="black" cx="315.095" cy="-604.56" rx="122.379" ry="18"/>
<text text-anchor="middle" x="315.095" y="-600.86" font-family="Helvetica,sans-Serif" font-size="14.00">Brandon &#39;The Builder&#39; Stark</text>
</g>
<!-- part8&#45;&#45;The Age of Heroes -->
<g id="edge5" class="edge"><title>part8&#45;&#45;The Age of Heroes</title>
<path fill="none" stroke="black" d="M316.895,-586.218C322.463,-529.475 339.424,-356.608 345.962,-289.984"/>
</g>
<!-- part9 -->
<g id="node7" class="node"><title>part9</title>
<ellipse fill="#ffc6d1" stroke="black" cx="660.989" cy="-235.697" rx="46.2923" ry="18"/>
<text text-anchor="middle" x="660.989" y="-231.997" font-family="Helvetica,sans-Serif" font-size="14.00">Joramun</text>
</g>
<!-- part9&#45;&#45;The Age of Heroes -->
<g id="edge6" class="edge"><title>part9&#45;&#45;The Age of Heroes</title>
<path fill="none" stroke="black" d="M615.894,-239.697C569.762,-243.789 496.824,-250.259 438.781,-255.408"/>
</g>
<!-- part10 -->
<g id="node8" class="node"><title>part10</title>
<ellipse fill="#ffc6d1" stroke="black" cx="627.582" cy="-63.2787" rx="81.7856" ry="18"/>
<text text-anchor="middle" x="627.582" y="-59.5787" font-family="Helvetica,sans-Serif" font-size="14.00">Durran Godsgrief</text>
</g>
<!-- part10&#45;&#45;The Age of Heroes -->
<g id="edge7" class="edge"><title>part10&#45;&#45;The Age of Heroes</title>
<path fill="none" stroke="black" d="M603.309,-80.6889C554.386,-115.78 443.666,-195.198 385.634,-236.823"/>
</g>
<!-- The Andal Invasion -->
<g id="node9" class="node"><title>The Andal Invasion</title>
<polygon fill="#fff790" stroke="black" points="-119.889,105.39 -299.889,105.39 -299.889,158.39 -119.889,158.39 -119.889,105.39"/>
<text text-anchor="middle" x="-209.889" y="120.59" font-family="Helvetica,sans-Serif" font-size="14.00">The Andal Invasion</text>
<text text-anchor="middle" x="-209.889" y="135.59" font-family="Helvetica,sans-Serif" font-size="14.00">Source: Before Book 1</text>
<text text-anchor="middle" x="-209.889" y="150.59" font-family="Helvetica,sans-Serif" font-size="14.00">Date: 6,000BC &#45; 4,000BC</text>
</g>
<!-- The Andal Invasion&#45;&#45;Westeros -->
<g id="edge8" class="edge"><title>The Andal Invasion&#45;&#45;Westeros</title>
<path fill="none" stroke="black" d="M-176.829,105.024C-130.572,67.4341 -47.7686,0.145027 -8.14781,-32.0524"/>
</g>
<!-- The Age of the Hundred Kingdoms -->
<g id="node10" class="node"><title>The Age of the Hundred Kingdoms</title>
<polygon fill="#fff790" stroke="black" points="125.133,165.596 -111.867,165.596 -111.867,218.596 125.133,218.596 125.133,165.596"/>
<text text-anchor="middle" x="6.63254" y="180.796" font-family="Helvetica,sans-Serif" font-size="14.00">The Age of the Hundred Kingdoms</text>
<text text-anchor="middle" x="6.63254" y="195.796" font-family="Helvetica,sans-Serif" font-size="14.00">Source: Before Book 1</text>
<text text-anchor="middle" x="6.63254" y="210.796" font-family="Helvetica,sans-Serif" font-size="14.00">Date: 6,000BC &#45; 60BC</text>
</g>
<!-- The Age of the Hundred Kingdoms&#45;&#45;Westeros -->
<g id="edge9" class="edge"><title>The Age of the Hundred Kingdoms&#45;&#45;Westeros</title>
<path fill="none" stroke="black" d="M7.46772,165.242C9.01574,115.467 12.2923,10.1128 13.6057,-32.1185"/>
</g>
<!-- The Targaryen Conquest -->
<g id="node11" class="node"><title>The Targaryen Conquest</title>
<polygon fill="#fff790" stroke="black" points="346.861,-51.6876 172.861,-51.6876 172.861,1.3124 346.861,1.3124 346.861,-51.6876"/>
<text text-anchor="middle" x="259.861" y="-36.4876" font-family="Helvetica,sans-Serif" font-size="14.00">The Targaryen Conquest</text>
<text text-anchor="middle" x="259.861" y="-21.4876" font-family="Helvetica,sans-Serif" font-size="14.00">Source: Before Book 1</text>
<text text-anchor="middle" x="259.861" y="-6.4876" font-family="Helvetica,sans-Serif" font-size="14.00">Date: 2BC &#45; 1AC</text>
</g>
<!-- The Targaryen Conquest&#45;&#45;Westeros -->
<g id="edge10" class="edge"><title>The Targaryen Conquest&#45;&#45;Westeros</title>
<path fill="none" stroke="black" d="M172.547,-34.0718C131.996,-38.1978 85.7933,-42.8989 53.8003,-46.1541"/>
</g>
<!-- The Targaryen Dynasty -->
<g id="node12" class="node"><title>The Targaryen Dynasty</title>
<polygon fill="#fff790" stroke="black" points="287.992,84.1661 124.992,84.1661 124.992,137.166 287.992,137.166 287.992,84.1661"/>
<text text-anchor="middle" x="206.492" y="99.3661" font-family="Helvetica,sans-Serif" font-size="14.00">The Targaryen Dynasty</text>
<text text-anchor="middle" x="206.492" y="114.366" font-family="Helvetica,sans-Serif" font-size="14.00">Source: Before Book 1</text>
<text text-anchor="middle" x="206.492" y="129.366" font-family="Helvetica,sans-Serif" font-size="14.00">Date: 1AC &#45; 259AC</text>
</g>
<!-- The Targaryen Dynasty&#45;&#45;Westeros -->
<g id="edge11" class="edge"><title>The Targaryen Dynasty&#45;&#45;Westeros</title>
<path fill="none" stroke="black" d="M174.734,84.1045C135.472,51.2672 69.7001,-3.74155 35.8093,-32.0865"/>
</g>
<!-- The Reign of the Mad King -->
<g id="node13" class="node"><title>The Reign of the Mad King</title>
<polygon fill="#fff790" stroke="black" points="-91.2862,-60.7238 -276.286,-60.7238 -276.286,-7.72377 -91.2862,-7.72377 -91.2862,-60.7238"/>
<text text-anchor="middle" x="-183.786" y="-45.5238" font-family="Helvetica,sans-Serif" font-size="14.00">The Reign of the Mad King</text>
<text text-anchor="middle" x="-183.786" y="-30.5238" font-family="Helvetica,sans-Serif" font-size="14.00">Source: Before Book 1</text>
<text text-anchor="middle" x="-183.786" y="-15.5238" font-family="Helvetica,sans-Serif" font-size="14.00">Date: 259AC &#45; 290AC</text>
</g>
<!-- The Reign of the Mad King&#45;&#45;Westeros -->
<g id="edge12" class="edge"><title>The Reign of the Mad King&#45;&#45;Westeros</title>
<path fill="none" stroke="black" d="M-91.1847,-41.6911C-68.0412,-43.5574 -44.4308,-45.4614 -25.4433,-46.9925"/>
</g>
<!-- Robert&#39;s Rebellion -->
<g id="node14" class="node"><title>Robert&#39;s Rebellion</title>
<polygon fill="#fff790" stroke="black" points="-249.138,-273.382 -411.138,-273.382 -411.138,-220.382 -249.138,-220.382 -249.138,-273.382"/>
<text text-anchor="middle" x="-330.138" y="-258.182" font-family="Helvetica,sans-Serif" font-size="14.00">Robert&#39;s Rebellion</text>
<text text-anchor="middle" x="-330.138" y="-243.182" font-family="Helvetica,sans-Serif" font-size="14.00">Source: Before Book 1</text>
<text text-anchor="middle" x="-330.138" y="-228.182" font-family="Helvetica,sans-Serif" font-size="14.00">Date: 280AC &#45; 281AC</text>
</g>
<!-- Robert&#39;s Rebellion&#45;&#45;Westeros -->
<g id="edge13" class="edge"><title>Robert&#39;s Rebellion&#45;&#45;Westeros</title>
<path fill="none" stroke="black" d="M-283.703,-220.355C-212.667,-179.773 -78.8371,-103.318 -17.7244,-68.406"/>
</g>
<!-- part11 -->
<g id="node15" class="node"><title>part11</title>
<ellipse fill="#ffc6d1" stroke="black" cx="-380.97" cy="-585.918" rx="87.9851" ry="18"/>
<text text-anchor="middle" x="-380.97" y="-582.218" font-family="Helvetica,sans-Serif" font-size="14.00">Eddard &#39;Ned&#39; Stark</text>
</g>
<!-- part11&#45;&#45;Robert&#39;s Rebellion -->
<g id="edge14" class="edge"><title>part11&#45;&#45;Robert&#39;s Rebellion</title>
<path fill="none" stroke="black" d="M-378.237,-567.69C-369.803,-511.435 -344.15,-340.34 -334.171,-273.778"/>
</g>
<!-- part12 -->
<g id="node16" class="node"><title>part12</title>
<ellipse fill="#ffc6d1" stroke="black" cx="-597.034" cy="-394.842" rx="83.3857" ry="18"/>
<text text-anchor="middle" x="-597.034" y="-391.142" font-family="Helvetica,sans-Serif" font-size="14.00">Robert Baratheon</text>
</g>
<!-- part12&#45;&#45;Robert&#39;s Rebellion -->
<g id="edge15" class="edge"><title>part12&#45;&#45;Robert&#39;s Rebellion</title>
<path fill="none" stroke="black" d="M-566.678,-378.013C-520.634,-352.488 -432.726,-303.754 -378.012,-273.422"/>
</g>
<!-- part13 -->
<g id="node17" class="node"><title>part13</title>
<ellipse fill="#ffc6d1" stroke="black" cx="-627.645" cy="-96.0538" rx="89.8845" ry="18"/>
<text text-anchor="middle" x="-627.645" y="-92.3538" font-family="Helvetica,sans-Serif" font-size="14.00">Rhaegar Targaryen</text>
</g>
<!-- part13&#45;&#45;Robert&#39;s Rebellion -->
<g id="edge16" class="edge"><title>part13&#45;&#45;Robert&#39;s Rebellion</title>
<path fill="none" stroke="black" d="M-594.383,-112.917C-542.981,-138.976 -443.805,-189.256 -382.651,-220.259"/>
</g>
<!-- part14 -->
<g id="node18" class="node"><title>part14</title>
<ellipse fill="#ffc6d1" stroke="black" cx="-640.687" cy="-245.221" rx="87.1846" ry="18"/>
<text text-anchor="middle" x="-640.687" y="-241.521" font-family="Helvetica,sans-Serif" font-size="14.00">Aerys Targaryen II</text>
</g>
<!-- part14&#45;&#45;Robert&#39;s Rebellion -->
<g id="edge17" class="edge"><title>part14&#45;&#45;Robert&#39;s Rebellion</title>
<path fill="none" stroke="black" d="M-553.355,-245.688C-508.775,-245.926 -454.886,-246.215 -411.227,-246.448"/>
</g>
<!-- part15 -->
<g id="node19" class="node"><title>part15</title>
<ellipse fill="#ffc6d1" stroke="black" cx="-494.187" cy="-510.389" rx="59.5901" ry="18"/>
<text text-anchor="middle" x="-494.187" y="-506.689" font-family="Helvetica,sans-Serif" font-size="14.00">Hoster Tully</text>
</g>
<!-- part15&#45;&#45;Robert&#39;s Rebellion -->
<g id="edge18" class="edge"><title>part15&#45;&#45;Robert&#39;s Rebellion</title>
<path fill="none" stroke="black" d="M-483.168,-492.691C-455.007,-447.456 -380.264,-327.398 -346.775,-273.606"/>
</g>
<!-- part16 -->
<g id="node20" class="node"><title>part16</title>
<ellipse fill="#ffc6d1" stroke="black" cx="-549.135" cy="19.108" rx="50.0912" ry="18"/>
<text text-anchor="middle" x="-549.135" y="22.808" font-family="Helvetica,sans-Serif" font-size="14.00">Jon Arryn</text>
</g>
<!-- part16&#45;&#45;Robert&#39;s Rebellion -->
<g id="edge19" class="edge"><title>part16&#45;&#45;Robert&#39;s Rebellion</title>
<path fill="none" stroke="black" d="M-534.766,1.65565C-497.369,-43.7662 -396.82,-165.891 -352.101,-220.206"/>
</g>
<!-- part17 -->
<g id="node21" class="node"><title>part17</title>
<ellipse fill="#ffc6d1" stroke="black" cx="-209.798" cy="-558.604" rx="75.2868" ry="18"/>
<text text-anchor="middle" x="-209.798" y="-554.904" font-family="Helvetica,sans-Serif" font-size="14.00">Jaime Lannister</text>
</g>
<!-- part17&#45;&#45;Robert&#39;s Rebellion -->
<g id="edge20" class="edge"><title>part17&#45;&#45;Robert&#39;s Rebellion</title>
<path fill="none" stroke="black" d="M-216.789,-540.497C-237.054,-488.001 -295.912,-335.54 -319.841,-273.556"/>
</g>
<!-- King Robert&#39;s Reign -->
<g id="node22" class="node"><title>King Robert&#39;s Reign</title>
<polygon fill="#fff790" stroke="black" points="-57.5467,261.901 -219.547,261.901 -219.547,314.901 -57.5467,314.901 -57.5467,261.901"/>
<text text-anchor="middle" x="-138.547" y="277.101" font-family="Helvetica,sans-Serif" font-size="14.00">King Robert&#39;s Reign</text>
<text text-anchor="middle" x="-138.547" y="292.101" font-family="Helvetica,sans-Serif" font-size="14.00">Source: Before Book 1</text>
<text text-anchor="middle" x="-138.547" y="307.101" font-family="Helvetica,sans-Serif" font-size="14.00">Date: 282AC &#45; 297AC</text>
</g>
<!-- King Robert&#39;s Reign&#45;&#45;Westeros -->
<g id="edge21" class="edge"><title>King Robert&#39;s Reign&#45;&#45;Westeros</title>
<path fill="none" stroke="black" d="M-126.563,261.833C-96.6799,195.577 -19.4398,24.3254 5.94691,-31.9603"/>
</g>
<!-- part18 -->
<g id="node23" class="node"><title>part18</title>
<ellipse fill="#ffc6d1" stroke="black" cx="-278.242" cy="571.193" rx="83.3857" ry="18"/>
<text text-anchor="middle" x="-278.242" y="574.893" font-family="Helvetica,sans-Serif" font-size="14.00">Robert Baratheon</text>
</g>
<!-- part18&#45;&#45;King Robert&#39;s Reign -->
<g id="edge22" class="edge"><title>part18&#45;&#45;King Robert&#39;s Reign</title>
<path fill="none" stroke="black" d="M-269.291,553.073C-245.384,504.677 -179.944,372.204 -151.753,315.136"/>
</g>
<!-- The Long Night -->
<g id="node24" class="node"><title>The Long Night</title>
<polygon fill="#fff790" stroke="black" points="273.74,262.185 111.74,262.185 111.74,315.185 273.74,315.185 273.74,262.185"/>
<text text-anchor="middle" x="192.74" y="277.385" font-family="Helvetica,sans-Serif" font-size="14.00">The Long Night</text>
<text text-anchor="middle" x="192.74" y="292.385" font-family="Helvetica,sans-Serif" font-size="14.00">Source: Before Book 1</text>
<text text-anchor="middle" x="192.74" y="307.385" font-family="Helvetica,sans-Serif" font-size="14.00">Date: 8,000BC</text>
</g>
<!-- The Long Night&#45;&#45;Westeros -->
<g id="edge23" class="edge"><title>The Long Night&#45;&#45;Westeros</title>
<path fill="none" stroke="black" d="M178.728,262.094C143.784,195.783 53.4657,24.3878 23.7804,-31.945"/>
</g>
<!-- part19 -->
<g id="node25" class="node"><title>part19</title>
<ellipse fill="#ffc6d1" stroke="black" cx="181.081" cy="606.463" rx="50.0912" ry="18"/>
<text text-anchor="middle" x="181.081" y="610.163" font-family="Helvetica,sans-Serif" font-size="14.00">Azor Ahai</text>
</g>
<!-- part19&#45;&#45;The Long Night -->
<g id="edge24" class="edge"><title>part19&#45;&#45;The Long Night</title>
<path fill="none" stroke="black" d="M181.758,588.005C183.726,534.357 189.453,378.295 191.76,315.41"/>
</g>
<!-- part20 -->
<g id="node26" class="node"><title>part20</title>
<ellipse fill="#ffc6d1" stroke="black" cx="455.607" cy="460.232" rx="122.379" ry="18"/>
<text text-anchor="middle" x="455.607" y="463.932" font-family="Helvetica,sans-Serif" font-size="14.00">Brandon &#39;The Builder&#39; Stark</text>
</g>
<!-- part20&#45;&#45;The Long Night -->
<g id="edge25" class="edge"><title>part20&#45;&#45;The Long Night</title>
<path fill="none" stroke="black" d="M428.466,442.519C382.161,412.301 287.655,350.626 233.424,315.235"/>
</g>
<!-- Jon Snow is Born -->
<g id="node27" class="node"><title>Jon Snow is Born</title>
<polygon fill="#fff790" stroke="black" points="223.545,-278.704 61.5453,-278.704 61.5453,-225.704 223.545,-225.704 223.545,-278.704"/>
<text text-anchor="middle" x="142.545" y="-263.504" font-family="Helvetica,sans-Serif" font-size="14.00">Jon Snow is Born</text>
<text text-anchor="middle" x="142.545" y="-248.504" font-family="Helvetica,sans-Serif" font-size="14.00">Source: Before Book 1</text>
<text text-anchor="middle" x="142.545" y="-233.504" font-family="Helvetica,sans-Serif" font-size="14.00">Date: 281AC</text>
</g>
<!-- Jon Snow is Born&#45;&#45;Westeros -->
<g id="edge26" class="edge"><title>Jon Snow is Born&#45;&#45;Westeros</title>
<path fill="none" stroke="black" d="M125.498,-225.377C98.9658,-183.626 48.4854,-104.19 25.7623,-68.4323"/>
</g>
<!-- Location -->
<g id="node28" class="node"><title>Location</title>
<polygon fill="#d9ffd9" stroke="black" points="591.131,172.407 520.131,172.407 520.131,208.407 591.131,208.407 591.131,172.407"/>
<text text-anchor="middle" x="555.631" y="194.107" font-family="Helvetica,sans-Serif" font-size="14.00">Location</text>
</g>
<!-- Event -->
<g id="node29" class="node"><title>Event</title>
<polygon fill="#fff790" stroke="black" points="670.708,155.738 616.708,155.738 616.708,191.738 670.708,191.738 670.708,155.738"/>
<text text-anchor="middle" x="643.708" y="177.438" font-family="Helvetica,sans-Serif" font-size="14.00">Event</text>
</g>
<!-- Location&#45;&#45;Event -->
<g id="edge27" class="edge"><title>Location&#45;&#45;Event</title>
<path fill="none" stroke="black" d="M591.201,183.675C599.699,182.067 608.635,180.376 616.676,178.854"/>
</g>
<!-- Participant -->
<g id="node30" class="node"><title>Participant</title>
<ellipse fill="#ffc6d1" stroke="black" cx="732.662" cy="184.855" rx="53.8905" ry="18"/>
<text text-anchor="middle" x="732.662" y="188.555" font-family="Helvetica,sans-Serif" font-size="14.00">Participant</text>
</g>
<!-- Event&#45;&#45;Participant -->
<g id="edge28" class="edge"><title>Event&#45;&#45;Participant</title>
<path fill="none" stroke="black" d="M670.88,177.134C674.457,177.581 678.21,178.05 682.025,178.527"/>
</g>
</g>
</svg>
